<?xml version="1.0" standalone="no"?>
<!DOCTYPE svg PUBLIC "-//W3C//DTD SVG 20010904//EN"
 "http://www.w3.org/TR/2001/REC-SVG-20010904/DTD/svg10.dtd">
<svg version="1.0" xmlns="http://www.w3.org/2000/svg"
 width="300.000000pt" height="300.000000pt" viewBox="0 0 300.000000 300.000000"
 preserveAspectRatio="xMidYMid meet">
<metadata>
Created by potrace 1.11, written by Peter Selinger 2001-2013
</metadata>
<g transform="translate(0.000000,300.000000) scale(0.100000,-0.100000)"
fill="#000000" stroke="none">
<path d="M703 2080 c-9 -9 -7 -22 6 -54 31 -72 53 -177 54 -265 l2 -86 40 -7
c22 -3 83 -9 135 -13 52 -4 97 -8 100 -10 3 -2 39 -6 80 -9 74 -7 108 -10 185
-21 22 -2 65 -7 95 -10 30 -3 72 -8 92 -11 34 -5 39 -3 48 21 25 65 1 163 -53
217 -71 71 -413 209 -602 243 -78 14 -170 16 -182 5z m260 -56 c171 -42 401
-138 486 -201 18 -14 42 -44 52 -67 27 -59 24 -140 -4 -131 -7 2 -41 6 -77 9
-36 3 -101 10 -145 15 -44 6 -111 13 -150 16 -38 3 -81 8 -95 10 -14 2 -56 7
-95 10 -38 3 -86 8 -106 11 l-37 5 3 51 c3 60 -17 173 -45 253 l-20 57 68 -7
c37 -3 111 -17 165 -31z"/>
<path d="M449 2063 c-98 -25 -159 -81 -199 -183 -12 -30 -21 -55 -20 -55 2 0
-1 -22 -4 -50 -4 -27 -9 -117 -11 -200 -6 -206 -17 -284 -61 -406 -31 -86 -65
-146 -113 -201 -26 -29 -37 -49 -31 -58 6 -10 16 -8 46 10 167 101 365 305
511 525 32 50 67 101 76 115 94 138 90 128 90 225 0 106 -30 217 -70 265 -24
30 -28 31 -95 28 -38 -1 -92 -8 -119 -15z m111 -54 c31 -114 50 -224 56 -316
l7 -103 -38 -62 c-79 -131 -312 -418 -337 -418 -4 0 -5 8 -2 18 3 9 -4 1 -14
-18 -11 -19 -30 -44 -41 -54 -22 -20 -22 -20 -15 0 4 10 13 26 19 34 7 8 22
35 34 60 21 43 21 44 2 20 -11 -14 -23 -33 -27 -43 -3 -9 -10 -14 -16 -11 -6
4 -8 2 -4 -4 8 -13 -40 -95 -66 -111 -17 -11 -18 -10 -9 7 5 10 17 24 25 31 9
8 14 17 11 21 -3 5 2 16 11 24 8 9 13 16 10 16 -3 0 3 23 15 52 41 104 57 210
64 413 6 194 13 248 37 313 37 100 121 156 255 171 7 0 17 -17 23 -40z"/>
<path d="M810 1470 c0 -29 -4 -40 -15 -40 -18 0 -15 -42 3 -48 8 -2 12 -33 12
-87 0 -70 3 -83 18 -87 37 -10 42 1 42 88 0 65 3 84 14 84 7 0 16 9 19 21 4
15 0 23 -14 26 -15 4 -19 14 -19 44 0 37 -2 39 -30 39 -28 0 -30 -2 -30 -40z"/>
<path d="M984 1421 c-40 -25 -54 -44 -61 -84 -15 -92 84 -165 166 -123 58 30
79 92 52 152 -28 62 -103 88 -157 55z m99 -68 c24 -47 8 -87 -38 -95 -37 -8
-65 17 -65 57 0 41 22 65 60 65 22 0 33 -7 43 -27z"/>
<path d="M1523 1429 c-74 -21 -107 -117 -62 -180 36 -51 145 -62 185 -18 17
18 16 20 -1 33 -16 11 -24 11 -51 0 -74 -31 -131 39 -78 97 19 21 73 26 91 8
12 -12 53 4 53 20 0 28 -87 53 -137 40z"/>
<path d="M1750 1413 c-89 -75 -41 -219 70 -206 19 2 52 4 73 3 20 0 38 3 38 7
4 23 5 190 1 201 -5 14 -52 16 -52 2 0 -7 -6 -7 -20 0 -39 21 -80 19 -110 -7z
m119 -64 c37 -67 -49 -130 -96 -70 -17 22 -16 52 3 79 22 32 73 27 93 -9z"/>
<path d="M2075 1424 c-14 -7 -25 -9 -25 -3 0 5 -13 9 -30 9 l-30 0 0 -110 0
-110 29 0 29 0 0 70 c0 76 11 100 47 100 29 0 35 -16 35 -101 l0 -69 30 0 30
0 0 81 c0 44 -5 90 -11 102 -22 41 -62 53 -104 31z"/>
<path d="M1198 1398 c-2 -18 -1 -59 2 -91 7 -69 30 -96 87 -104 34 -4 45 -1
72 24 31 27 33 31 35 116 l3 87 -29 0 c-29 0 -31 -4 -30 -75 2 -79 -26 -118
-64 -91 -15 11 -18 28 -19 87 -1 72 -1 74 -27 77 -24 3 -27 -1 -30 -30z"/>
<path d="M2599 1371 c-1 -6 -2 -16 -3 -21 0 -6 -8 -15 -16 -20 -13 -9 -13 -10
1 -10 12 0 15 -11 15 -52 -1 -29 4 -53 10 -55 8 -3 11 13 9 47 -2 36 2 53 11
57 17 6 18 24 2 21 -7 -2 -12 5 -10 14 1 9 -2 19 -8 23 -5 3 -11 1 -11 -4z"/>
<path d="M2282 1328 c-19 -19 -14 -41 15 -63 32 -26 23 -49 -16 -41 -25 6 -25
6 -7 -9 25 -19 31 -19 50 1 22 22 20 30 -14 60 -34 31 -30 48 9 40 25 -6 25
-6 7 9 -24 18 -29 18 -44 3z"/>
<path d="M2454 1328 c-5 -7 -16 -30 -25 -52 l-16 -39 -21 47 c-32 66 -46 57
-16 -10 20 -46 23 -62 15 -85 -5 -16 -6 -29 -2 -29 9 0 83 171 77 177 -2 2 -8
-2 -12 -9z"/>
<path d="M2503 1333 c-22 -8 -14 -46 14 -68 32 -26 23 -49 -16 -41 -25 6 -25
6 -7 -9 25 -19 29 -19 50 4 20 22 13 44 -20 61 -29 16 -26 35 5 34 25 -1 28
11 5 20 -9 3 -16 6 -17 5 -1 0 -8 -3 -14 -6z"/>
<path d="M2700 1333 c-38 -13 -53 -72 -27 -107 16 -22 73 -24 95 -3 8 9 13 19
9 23 -3 3 -14 -1 -23 -10 -21 -22 -53 -17 -72 12 l-14 22 61 0 c65 0 71 6 44
38 -20 23 -50 33 -73 25z m56 -28 c20 -15 18 -16 -31 -20 -39 -3 -49 3 -34 21
15 18 40 18 65 -1z"/>
<path d="M2819 1330 c-6 -67 -4 -120 3 -120 4 0 9 6 9 13 3 35 6 63 7 73 2 15
28 25 47 18 11 -4 15 -21 15 -56 0 -29 4 -47 10 -43 5 3 9 21 8 40 -1 36 16
65 38 65 20 0 33 -31 29 -73 -2 -20 0 -37 6 -37 16 0 11 97 -7 114 -19 20 -24
20 -52 0 -12 -8 -22 -11 -22 -6 0 13 -46 21 -62 11 -7 -5 -16 -3 -20 4 -6 9
-8 8 -9 -3z"/>
</g>
</svg>
