<?xml version="1.0" encoding="utf-8"?>
<!-- Generator: Adobe Illustrator 15.0.0, SVG Export Plug-In . SVG Version: 6.00 Build 0)  -->
<!DOCTYPE svg PUBLIC "-//W3C//DTD SVG 1.1//EN" "http://www.w3.org/Graphics/SVG/1.1/DTD/svg11.dtd">
<svg version="1.1" id="Calque_1" xmlns="http://www.w3.org/2000/svg" xmlns:xlink="http://www.w3.org/1999/xlink" x="0px" y="0px"
	 width="1417.32px" height="841.89px" viewBox="0 0 1417.32 841.89" enable-background="new 0 0 1417.32 841.89"
	 xml:space="preserve">
<g>
	<path fill="none" stroke="#000000" stroke-width="11" d="M129.412,644.6c0,0,84.914-60.014,83.363-252.287
		c-0.769-95.259,7.55-186.421,145.226-177.404c28.492,1.866,45.833,107.224,28.678,139.199
		C262.766,585.083,129.412,644.6,129.412,644.6z"/>
</g>
<path fill="none" stroke="#E2001A" stroke-width="11" d="M690.669,384.115c-0.468,1.242,23.454-59.635-34.193-92.204
	c-143.356-80.996-273.007-87.306-269.983-80.136c40.507,96.032,23.262,144.511,23.262,144.511
	c3.245,4.214,284.936,28.787,284.936,28.787"/>
<text transform="matrix(1 0 0 1 417.2554 534.0234)"><tspan x="0" y="0" font-family="'CenturyGothic-Bold'" font-size="156">touca</tspan><tspan x="443.092" y="0" fill="#E2001A" font-family="'CenturyGothic-Bold'" font-size="156">n</tspan><tspan x="536.708" y="0" font-family="'CenturyGothic'" font-size="59.8081"> </tspan><tspan x="553.266" y="0" font-family="'CenturyGothic'" font-size="88">system</tspan></text>
<path fill="none" stroke="#000000" stroke-width="11" d="M202.061,612.753"/>
<path fill="none" stroke="#000000" stroke-width="11" d="M662.784,440.375"/>
<path fill="none" stroke="#000000" stroke-width="11" d="M666.179,466.267"/>
<line stroke="#000000" stroke-width="3" x1="218.734" y1="560.713" x2="194.014" y2="604.346"/>
<line stroke="#000000" stroke-width="4" x1="217.83" y1="541.26" x2="180.451" y2="606.942"/>
<line stroke="#000000" x1="218.202" y1="522.023" x2="165.417" y2="619.588"/>
<path stroke="#000000" stroke-width="2" d="M165.368,611.326"/>
<path stroke="#000000" stroke-width="2" d="M180.619,582.094"/>
<path stroke="#000000" stroke-width="3" d="M331.81,212.008c0,0,40.083,138.674,25.386,192.064
	c-3.696,13.428,37.71-40.333,40.505-54.831C398.117,347.086,409,275,371.178,216.623C362.852,203.772,331.81,212.008,331.81,212.008
	z"/>
</svg>
